<?xml version="1.0" encoding="utf-8"?>
<?xml-stylesheet type="text/xsl" href="rss1.xsl"?>
<rss version="2.0" xmlns:atom="http://www.w3.org/2005/Atom" xmlns:content="http://purl.org/rss/1.0/modules/content/" xmlns:dc="http://purl.org/dc/elements/1.1/" xmlns:media="http://search.yahoo.com/mrss/">
<channel>
 <title>Getty</title>
 <link>http://www.gettyimg.com/</link>
 <atom:link href="http://www.gettyimg.com/" rel="self" type="application/rss+xml" />

 
                <item>
                <title><![CDATA[【UPSCALED】Alan Walker, Hans Zimmer &amp; Sasha Alex Sloan - Time vs Hero (TSD Remix⧸Mashup) [4K AI Upscale HEVC 10-bit | PCM]]]></title>
                <link><![CDATA[https://sharemania.us/threads/alan-walker-hans-zimmer-sasha-alex-sloan-time-vs-hero-tsd-remix%E2%A7%B8mashup-4k-ai-upscale-hevc-10-bit-pcm.224226/]]></link>
                <description><![CDATA[<article>
<blockquote class="messageText SelectQuoteContainer ugc baseHtml">
<img src="https://images2.imgbox.com/98/c2/3rKEiuIa_o.jpg" class="bbCodeImage LbImage" alt="[​IMG]" data-url="https://images2.imgbox.com/98/c2/3rKEiuIa_o.jpg" style=""> <br>
<br>
<b><b>Genre: <span style="color: #0059b3">Electronic</span></b><br>
<b>Style:</b> <span style="color: #0059b3">Electro House</span><br>
<span style="color: #000000">Year: </span><span style="color: rgb(0, 89, 179)">2023</span><br>
Video Source: <span style="color: rgb(0, 89, 179)">Blu-ray &amp; YouTube (Intro/Outro)</span><br>
Audio Source: <span style="color: rgb(0, 89, 179)">WebDL (link in YouTube description)</span></b><br>
<br>
This is a Remix/Mashup by <b>TSD</b>. <br>
<br>
In May 2020 British-Norwegian music producer and DJ <b>Alan Walker</b> remixed "<b>Time</b>", composed by <b>Hans Zimmer</b>. Originally written in 2010 for Christopher Nolan's critically acclaimed film <i>Inception</i>, "Time" is a highly dramatic, string-led piece. Alan Walker's rework holds onto a number of elements from the original composition while adding a handful of new digital elements. He's kicked up the tempo a bit and added a bassline, transforming "Time" into a house track that still retains cinematic moments.<br>
<br>
"<b>Hero</b>" is a song by <b>Alan Walker</b> featuring American singer-songwriter <b>Sasha Alex Sloan</b>, released on May 4 2023. The song is a perfect blend of Walker's signature cinematic melodies and undulating basslines with Sloan's powerful vocals. The lyrics of the song celebrate the unsung heroes who brighten up our lives every day, making it an emotive anthem that listeners can connect with.<br>
<br>
I like both tracks, but like this remix even more. <b>TSD</b> mashed the Time remix and Hero together like it was ment to be this way.<br>
<br>
<b>Release Info</b><br>
The video track is upscaled to 4K with Topaz Video AI and converted to HEVC 10-bit.<br>
The PCM track is lossless (link in YouTube description), synced with Adobe Audition.<br>
The timed lyrics are synced and edited to match the music video.<br>
Enable the subtitles to see the lyrics.<br>
<br>
<div class="ToggleTriggerAnchor bbCodeSpoilerContainer">
<button type="button" class="button bbCodeSpoilerButton ToggleTrigger Tooltip JsOnly" data-target="> .SpoilerTarget"><span>Spoiler: <span class="SpoilerTitle">Media Info</span></span></button>
<div class="SpoilerTarget bbCodeSpoilerText">
<div class="bbCodeBlock bbCodeCode">
<div class="type">Code:</div>
<pre>General
Unique ID                      : 209645345684683915375028073339079473823 (0x9DB83992C14C140619B6B59D2FD9BA9F)
Complete name                  : Alan Walker, Hans Zimmer &amp; Sasha Alex Sloan - Time vs Hero (TSD Remix⧸Mashup).mkv
Format                         : Matroska
Format version                 : Version 4 / Version 2
File size                      : 510 MiB
Duration                       : 3 min 47 s
Overall bit rate               : 18.8 Mb/s
Frame rate                     : 25.117 FPS
Encoded date                   : 2023-07-10 13:17:22 UTC
Writing application            : mkvmerge v76.0 ('Celebration') 64-bit
Writing library                : libebml v1.4.4 + libmatroska v1.7.1

Video
ID                             : 1
Format                         : HEVC
Format/Info                    : High Efficiency Video Coding
Format profile                 : Main 10@L5@Main
Codec ID                       : V_MPEGH/ISO/HEVC
Duration                       : 3 min 46 s
Bit rate                       : 17.3 Mb/s
Width                          : 3 840 pixels
Height                         : 2 160 pixels
Display aspect ratio           : 16:9
Frame rate mode                : Variable
Frame rate                     : 25.117 FPS
Original frame rate            : 30.000 FPS
Color space                    : YUV
Chroma subsampling             : 4:2:0
Bit depth                      : 10 bits
Bits/(Pixel*Frame)             : 0.083
Stream size                    : 468 MiB (92%)
Default                        : Yes
Forced                         : No
Color range                    : Limited
Color primaries                : BT.601 PAL
Transfer characteristics       : BT.709
Matrix coefficients            : BT.601

Audio #1
ID                             : 2
Format                         : PCM
Format settings                : Little / Signed
Codec ID                       : A_PCM/INT/LIT
Duration                       : 3 min 47 s
Bit rate mode                  : Constant
Bit rate                       : 1 411.2 kb/s
Channel(s)                     : 2 channels
Sampling rate                  : 44.1 kHz
Frame rate                     : 25.000 FPS (1764 SPF)
Bit depth                      : 16 bits
Stream size                    : 38.2 MiB (7%)
Language                       : English
Default                        : Yes
Forced                         : No

Audio #2
ID                             : 3
Format                         : AAC LC
Format/Info                    : Advanced Audio Codec Low Complexity
Codec ID                       : A_AAC-2
Duration                       : 3 min 47 s
Bit rate                       : 128 kb/s
Channel(s)                     : 2 channels
Channel layout                 : L R
Sampling rate                  : 44.1 kHz
Frame rate                     : 43.066 FPS (1024 SPF)
Compression mode               : Lossy
Stream size                    : 3.46 MiB (1%)
Language                       : English
Default                        : No
Forced                         : No

Text
ID                             : 4
Format                         : UTF-8
Codec ID                       : S_TEXT/UTF8
Codec ID/Info                  : UTF-8 Plain Text
Duration                       : 2 min 22 s
Bit rate                       : 50 b/s
Frame rate                     : 0.190 FPS
Count of elements              : 27
Stream size                    : 890 Bytes (0%)
Title                          : Lyrics
Language                       : English
Default                        : No
Forced                         : No
</pre>
</div></div>
</div><br>
<div class="bbCodeBlock bbCodeVfcHH HiddenContent">
<div class="attribution type">Hidden Content:</div>
<blockquote>You must reply before you can see the hidden data contained here.</blockquote>
</div>
<div class="messageTextEndMarker">&nbsp;</div>
</blockquote>
</article>]]></description>
                <author><![CDATA[ADHDerby]]></author>
                </item>

                
                <item>
                <title><![CDATA[【Requests】[REQ VID] - MadTV: The Complete Series [1995-2016]]]></title>
                <link><![CDATA[https://sharemania.us/threads/madtv-the-complete-series-1995-2016.224225/]]></link>
                <description><![CDATA[<article>
<blockquote class="messageText SelectQuoteContainer ugc baseHtml">
MadTV [1995-2016] 328 episodes<br>
<br>
<a href="https://www.imdb.com/title/tt0112056/" target="_blank" class="externalLink" rel="nofollow">https://www.imdb.com/title/tt0112056/</a><br>
<br>
Please and thank you in advance.
<div class="messageTextEndMarker">&nbsp;</div>
</blockquote>
</article>]]></description>
                <author><![CDATA[Flukeborstein]]></author>
                </item>

                
                <item>
                <title><![CDATA[【Requests】[REQ VID] - Colbie Caillat - Pretend (Apple Music Rip)]]></title>
                <link><![CDATA[https://sharemania.us/threads/colbie-caillat-pretend-apple-music-rip.224227/]]></link>
                <description><![CDATA[<article>
<blockquote class="messageText SelectQuoteContainer ugc baseHtml">
Hi,<br>
I'd like do ask for someone to rip this music video on Apple Music. The new Era of Colbie music videos aren't available in Tidal.<br>
thanks in advance.
<div class="messageTextEndMarker">&nbsp;</div>
</blockquote>
</article>]]></description>
                <author><![CDATA[markitomg]]></author>
                </item>

                </channel></rss>